<?xml version="1.0" encoding="UTF-8"?><svg id="Layer_1" xmlns="http://www.w3.org/2000/svg" xmlns:xlink="http://www.w3.org/1999/xlink" viewBox="0 0 72 72"><defs><style>.cls-1{fill:#fe9801;}.cls-2{fill:url(#linear-gradient);}</style><linearGradient id="linear-gradient" x1="19.61" y1="36" x2="71" y2="36" gradientUnits="userSpaceOnUse"><stop offset="0" stop-color="#0056aa"/><stop offset="1" stop-color="#283654"/></linearGradient></defs><path class="cls-2" d="m44.26,41.1c-.12.2-.23.39-.35.59-1.92,3.16-4.51,5.53-8.09,6.65-3.41,1.07-6.82,1.1-10.05-.6-3.72-1.97-5.81-5.06-6.13-9.31-.28-3.78,1.01-7.01,3.37-9.87,2.66-3.24,6.1-5.08,10.27-5.54,3.2-.36,6.12.33,8.67,2.36,1.39,1.11,2.43,2.5,3.15,4.12.19.43.1.63-.36.76-1.95.52-3.9,1.02-5.85,1.55-.45.12-.7-.13-.93-.42-.73-.94-1.73-1.44-2.85-1.72-1.6-.4-3.08-.07-4.47.76-2.06,1.22-3.4,2.97-3.73,5.38-.24,1.78,0,3.46,1.24,4.87.87.99,1.97,1.57,3.28,1.74,2.82.36,4.86-.89,6.42-3.13.04-.06.11-.16.09-.21-.05-.12-.19-.07-.29-.07-1.89,0-3.79,0-5.68,0-.15,0-.3,0-.45,0-.62-.03-.87-.39-.65-.96.2-.53.44-1.06.68-1.58.33-.7.68-1.39,1.01-2.1.27-.57.71-.77,1.32-.76,3.28.01,6.57,0,9.85,0,.65,0,.65,0,.9-.62,1.51-3.67,3.94-6.5,7.55-8.23,1.82-.87,3.78-1.3,5.79-1.49,2.07-.19,4.1,0,6,.86,3.73,1.67,6.23,4.39,6.86,8.56.62,4.16-.43,7.85-3.22,11.03-2.57,2.93-5.79,4.65-9.63,5.22-3.7.55-7.07-.24-10.02-2.58-1.62-1.29-2.79-2.9-3.48-4.85-.04-.12-.04-.27-.21-.38Zm12.54,1.4c.26-.02.52-.03.77-.07,2.91-.46,6.03-2.74,6.48-6.63.28-2.4-1.15-4.94-3.37-5.85-1.4-.57-2.81-.54-4.24-.13-3.41.97-5.24,3.73-5.43,6.86-.2,3.22,2.46,5.82,5.79,5.83Z"/><path class="cls-1" d="m9.2,33.99c-2.53,0-5.07,0-7.6,0-.12,0-.25,0-.37,0-.23-.02-.3-.13-.16-.32.21-.28.43-.56.66-.83.17-.2.42-.17.65-.17,4.21,0,8.42,0,12.62,0,.77,0,1.55-.05,2.32-.06.5,0,.58.12.43.59-.25.79-.25.79-1.09.79-2.49,0-4.98,0-7.48,0Z"/><path class="cls-1" d="m12.42,30.87c-1.93,0-3.87,0-5.8,0-.16,0-.36.06-.45-.1-.11-.19.11-.31.19-.45.36-.65.9-.85,1.66-.84,3.59.04,7.19.01,10.78,0,.14,0,.27,0,.41,0,.36.02.4.11.24.43-.33.67-.77,1.01-1.59.97-1.81-.07-3.62-.02-5.43-.02Z"/><path class="cls-1" d="m13.03,37.1c-1.13,0-2.26,0-3.39,0-.47,0-.51-.09-.29-.5.09-.15.18-.3.26-.46.12-.24.31-.37.59-.37,2.18,0,4.35,0,6.53,0,.3,0,.42.15.39.44,0,.12-.02.24-.03.37-.02.38-.2.54-.6.53-1.16-.02-2.31,0-3.47,0Z"/></svg>