<?xml version="1.0" encoding="UTF-8"?><svg id="Layer_1" xmlns="http://www.w3.org/2000/svg" xmlns:xlink="http://www.w3.org/1999/xlink" viewBox="0 0 72 72"><defs><style>.cls-1{fill:#fe9801;}.cls-2{fill:url(#linear-gradient);}</style><linearGradient id="linear-gradient" x1="4.86" y1="36" x2="67.14" y2="36" gradientUnits="userSpaceOnUse"><stop offset="0" stop-color="#0056aa"/><stop offset="1" stop-color="#283654"/></linearGradient></defs><path class="cls-2" d="m56.42,17.36c.12-.1.22-.2.32-.29.98-.9,2.13-1.43,3.45-1.61,2.83-.38,5.53,1.33,6.52,3.88,1.29,3.33-.49,7.08-3.89,8.16-.48.15-.46.05-.46.64,0,5.24,0,10.49,0,15.73,0,.47,0,.46.45.62,2.29.8,3.75,2.38,4.21,4.76.67,3.45-1.65,6.59-4.85,7.21-2.16.42-4.03-.18-5.61-1.69-.08-.08-.17-.16-.27-.26-.14.07-.27.13-.4.2-2.45,1.41-4.9,2.83-7.35,4.25-2.08,1.2-4.16,2.4-6.23,3.6-.48.28-.41.23-.3.7.9,3.79-1.59,6.99-4.82,7.62-3.27.64-6.65-1.5-7.27-5.03-.14-.81-.12-1.63.07-2.43.11-.46.06-.44-.27-.63-1.7-.99-3.41-1.97-5.11-2.95-2.79-1.61-5.59-3.23-8.38-4.84-.12-.07-.24-.14-.36-.21-.26-.14-.26-.14-.48.07-.75.73-1.63,1.23-2.64,1.51-3.07.86-6.36-.78-7.45-3.84-1.21-3.36.6-7.03,4.03-8.06.36-.11.37-.12.37-.52,0-1.28,0-2.56,0-3.85,0-3.9,0-7.81,0-11.71,0-.1,0-.21,0-.31,0-.44,0-.43-.44-.57-2.27-.75-3.71-2.3-4.21-4.62-.5-2.34.21-4.35,1.98-5.96.92-.84,2.03-1.31,3.26-1.46,1.96-.24,3.65.34,5.09,1.68.24.22.24.22.54.05,2.43-1.4,4.86-2.81,7.29-4.21,2.17-1.25,4.34-2.5,6.51-3.75.04-.02.08-.05.12-.07.25-.15.26-.17.19-.45-.12-.5-.19-1-.18-1.52.05-2.29,1.04-4.04,2.96-5.27.77-.49,1.62-.75,2.52-.86,2.93-.38,5.86,1.53,6.66,4.51.27,1,.27,2,.06,3.01,0,.03-.01.07-.02.1-.07.33-.08.34.23.52.49.29.99.57,1.48.86,3.25,1.88,6.5,3.75,9.74,5.63.88.51,1.76,1.01,2.63,1.52.09.05.18.1.32.17Zm.25,28.53c-.06-.11-.1-.21-.16-.31-2.42-4.19-4.83-8.38-7.25-12.56-3.02-5.24-6.05-10.47-9.07-15.71-.73-1.27-1.47-2.54-2.2-3.81-.2-.34-.2-.32-.57-.26-.47.07-.94.12-1.42.15-.5.04-1-.07-1.48-.18-.26-.06-.28-.04-.42.18-.02.04-.05.08-.07.12-3.01,5.22-6.03,10.43-9.04,15.65-1.9,3.29-3.8,6.58-5.7,9.87-1.26,2.19-2.53,4.38-3.79,6.57-.17.3-.17.31.07.56.67.71,1.14,1.53,1.43,2.46.11.36.12.36.51.36,2.67,0,5.34,0,8.01,0,9.65,0,19.3,0,28.95,0,.45,0,.42.07.58-.42.28-.92.76-1.72,1.42-2.42.07-.08.14-.16.22-.25Zm-16.05,14.77c.14-.07.28-.14.4-.21,3.13-1.8,6.26-3.61,9.38-5.42,1.46-.84,2.92-1.69,4.39-2.54.22-.13.24-.18.19-.38-.05-.19-.16-.28-.35-.25-.06,0-.12,0-.17,0-12.31,0-24.62,0-36.93,0-.09,0-.19-.02-.28.01-.08.03-.17.09-.19.16-.02.07.04.18.09.23.11.1.25.16.39.24,4.06,2.34,8.11,4.68,12.17,7.02.51.3,1.03.6,1.55.89.25.14.26.14.45-.04.04-.04.08-.08.13-.12,1.43-1.25,3.07-1.79,4.97-1.55,1.39.17,2.57.77,3.57,1.75.07.07.15.14.25.22Zm14.36-40.74c-.06-.05-.14-.15-.25-.21-.51-.3-1.03-.59-1.54-.89-4.13-2.38-8.25-4.77-12.38-7.15-.06-.03-.12-.08-.19-.09-.08-.01-.18-.02-.25.02-.11.06-.09.18-.04.28.04.07.08.14.12.21,3.18,5.51,6.36,11.02,9.54,16.53,2.85,4.94,5.71,9.89,8.56,14.83.16.28.33.56.49.84.06.1.14.15.26.13.13-.02.17-.11.18-.22.01-.14.01-.28.01-.42,0-3.25,0-6.5,0-9.76,0-1.96,0-3.92,0-5.87,0-.5,0-.5-.47-.65-1.17-.39-2.16-1.04-2.92-2.01-1.12-1.42-1.54-3.03-1.28-4.82.03-.23.08-.46.13-.75ZM12.5,36c0,2.6,0,5.2,0,7.8,0,.1,0,.21,0,.31,0,.13,0,.26.17.3.16.04.24-.05.3-.17.18-.32.37-.65.56-.97,2.87-4.96,5.73-9.93,8.6-14.89,3.14-5.44,6.28-10.87,9.42-16.31.04-.07.08-.14.12-.21.06-.11.04-.2-.05-.28-.08-.08-.16-.08-.25-.02-.06.04-.12.07-.18.1-2.68,1.55-5.37,3.1-8.05,4.64-1.95,1.12-3.89,2.25-5.84,3.37-.29.17-.29.18-.23.5.15.71.22,1.42.12,2.15-.22,1.7-.99,3.09-2.33,4.16-.61.49-1.29.83-2.04,1.05-.32.09-.33.11-.33.43,0,.09,0,.19,0,.28,0,2.59,0,5.17,0,7.76Z"/><g><path class="cls-1" d="m30.04,8.87c.01.13-.04.17-.23.28-.04.02-.08.05-.12.07-2.17,1.25-4.34,2.5-6.51,3.75-2.43,1.4-4.86,2.81-7.29,4.21-.3.17-.3.17-.54-.05-1.44-1.34-3.13-1.92-5.09-1.68-1.24.15-2.34.62-3.26,1.46-1.77,1.61-2.48,3.62-1.98,5.96.5,2.32,1.95,3.87,4.21,4.62.43.14.44.13.44.57,0,.1,0,.21,0,.31,0,3.9,0,7.81,0,11.71,0,1.28,0,2.56,0,3.85,0,.33-.01.39-.21.47,0,0,0,0,0,.01.54-.17,1.1-.26,1.67-.26.51,0,.99.07,1.45.19-.07-.06-.07-.15-.07-.25,0-.1,0-.21,0-.31,0-2.6,0-5.2,0-7.8s0-5.17,0-7.76c0-.09,0-.19,0-.28,0-.32.02-.34.33-.43.75-.22,1.43-.56,2.04-1.05,1.33-1.07,2.11-2.45,2.33-4.16.09-.73.03-1.44-.12-2.15-.07-.32-.07-.33.23-.5,1.95-1.12,3.89-2.25,5.84-3.37,2.68-1.55,5.37-3.1,8.05-4.64.06-.03.12-.07.18-.1.09-.05.17-.05.25.02,0,0,0,0,0,0,0,0,0,0,0,0-.73-.74-1.29-1.67-1.6-2.71Z"/><path class="cls-1" d="m55.16,52.36c-.09.03-.19.05-.29.08-.02.02-.04.03-.08.05-1.46.85-2.92,1.69-4.39,2.54-3.13,1.81-6.25,3.61-9.38,5.42-.13.07-.26.14-.4.21-.09-.08-.17-.15-.25-.22-1-.98-2.18-1.58-3.57-1.75-1.89-.24-3.54.3-4.97,1.55-.04.04-.08.08-.13.12-.2.18-.2.18-.45.04-.52-.29-1.03-.59-1.55-.89-4.06-2.34-8.11-4.68-12.17-7.02-.13-.08-.27-.14-.39-.24-.03-.03-.06-.07-.08-.11-.27.97-.8,1.85-1.51,2.57.06-.01.13.02.26.09.12.07.24.14.36.21,2.79,1.61,5.59,3.23,8.38,4.84,1.7.98,3.41,1.97,5.11,2.95.33.19.38.17.27.63-.19.8-.21,1.62-.07,2.43.62,3.53,4,5.67,7.27,5.03,3.23-.63,5.72-3.84,4.82-7.62-.11-.47-.19-.42.3-.7,2.08-1.2,4.16-2.4,6.23-3.6,2.45-1.42,4.9-2.83,7.35-4.25.13-.07.26-.13.4-.2,0,0,0,0,.01.01-.23-.27-.42-.56-.58-.87-.24-.41-.43-.85-.55-1.31Z"/><path class="cls-1" d="m56.13,25.47c.76.97,1.75,1.62,2.92,2.01.47.16.47.15.47.65,0,1.96,0,3.92,0,5.87,0,3.25,0,6.5,0,9.76,0,.14,0,.28-.01.42,0,.03,0,.05-.01.08.45-.12.95-.2,1.49-.2.51,0,.98.07,1.41.18-.03-.08-.03-.18-.03-.37,0-5.24,0-10.49,0-15.73,0-.6-.02-.49.46-.64,3.41-1.09,5.19-4.83,3.89-8.16-.99-2.55-3.69-4.26-6.52-3.88-1.33.18-2.47.71-3.45,1.61-.1.09-.21.18-.32.29-.13-.07-.23-.11-.32-.17-.88-.51-1.76-1.01-2.63-1.52-3.25-1.87-6.5-3.75-9.74-5.63-.49-.29-.99-.57-1.48-.86-.17-.1-.25-.15-.27-.23-.04-.01-.09-.02-.13-.04-.29.97-.84,1.85-1.56,2.56.03.03.07.07.1.11,0,0,0,0,0,0,.07-.04.17-.03.25-.02.07.01.12.06.19.09.39.23,9.43,5.45,12.38,7.15.51.3,1.03.59,1.54.89.1.06.18.15.25.21-.05.29-.1.52-.13.75-.26,1.79.16,3.4,1.28,4.82Z"/></g></svg>