<?xml version="1.0" encoding="UTF-8"?><svg id="Layer_1" xmlns="http://www.w3.org/2000/svg" xmlns:xlink="http://www.w3.org/1999/xlink" viewBox="0 0 72 72"><defs><style>.cls-1{fill:url(#linear-gradient);fill-rule:evenodd;}</style><linearGradient id="linear-gradient" x1="13.14" y1="9.3" x2="66.86" y2="63.02" gradientUnits="userSpaceOnUse"><stop offset="0" stop-color="#0056aa"/><stop offset="1" stop-color="#283654"/></linearGradient></defs><g id="layer1"><path id="path818" class="cls-1" d="m42.22,1.14c-.51,0-.98.11-1.41.25.92.61,1.43,1.43,1.68,2.35.02.13.05.22.07.34.02.11.04.22.04.33.07,1.59-.42,1.79-.76,2.73-.52,1.21-.38,2.51.25,3.56.05.13.13.27.22.4-.69-4.57,3.13-5.26,3.83-6.69.05-1.25-.98-2.08-1.79-2.66-.78-.47-1.48-.61-2.13-.61h0Zm5.75,1.03c-.07.42-.02.31-.04.52-.02.14-.02.33-.04.47-.04.14-.07.29-.13.43-.04.14-.09.29-.14.43-.07.14-.13.27-.2.42-.05.07-.09.14-.14.22-.04.05-.07.11-.11.16-.09.13-.18.25-.27.36-.11.11-.2.24-.33.33v.02c-.11.09-.22.2-.34.29-.38.29-.81.51-1.21.78-.13.09-.25.16-.36.27-.13.09-.24.18-.34.29-.13.11-.22.22-.33.34-.09.11-.2.24-.27.36-.09.13-.18.25-.25.38-.07.14-.13.27-.2.42-.05.14-.11.27-.14.42-.05.16-.09.31-.13.45-.02.07-.02.16-.04.24-.02.07-.02.14-.04.22,0,.14-.02.31-.02.45,0,.11,0,.22.02.33,0,.14.02.29.05.45.02.14.05.29.09.43.05.14.09.29.14.43.04.09.09.18.13.25l-4.16-1.61c-.71-.2-1.39-.38-2.1-.54-.38-.09-.76-.18-1.14-.27-1.08-.22-2.19-.38-3.29-.49-.04,0-.05-.02-.09-.02-1.08-.11-2.15-.16-3.24-.16-.8,0-1.59.04-2.37.09-1.1.07-2.21.22-3.31.4-.27.04-.54.09-.81.14-.56.11-1.1.24-1.63.36-.27.07-.54.14-.81.22-.27.11-.52.24-.78.34-.2.09-.4.18-.6.27-.04.02-.07.02-.09.04-.18.09-.34.16-.51.25-.05.02-.09.04-.13.05-.2.09-.4.2-.56.29-.13.05-.25.13-.36.18-.05.04-.13.07-.16.09-.16.09-.33.18-.47.27-.16.09-.31.18-.43.27-.13.09-.25.16-.36.25-.02.02-.04.02-.05.04-.11.07-.24.16-.34.25,0,0-.02.02-.04.04-.09.07-.18.14-.27.22-.04.02-.07.05-.11.07-.09.07-.18.16-.27.24-.02.04-.05.05-.07.07-.11.11-.22.2-.33.31-.02,0-.02.02-.04.04-.11.09-.22.2-.33.31-.02.02-.02.04-.04.04-.09.09-.18.18-.27.29-.04.04-.09.07-.13.11-.09.11-.2.22-.31.33-.02.04-.05.05-.07.09-.14.14-.27.29-.42.43-.02.02-.04.04-.05.05-.29.31-.6.61-.92.89-.33.29-.67.56-1.01.8-.36.25-.71.47-1.08.69-.36.2-.74.38-1.14.54-.38.16-.78.31-1.18.43-.76.16-1.54.47-2.21.52-.14,0-.31.04-.45.05-.16.04-.31.07-.45.11-.14.05-.29.11-.43.16-.14.05-.29.13-.43.2-.13.09-.27.16-.4.25-.13.09-.25.2-.36.31-.13.09-.25.22-.36.33-.11.13-.22.24-.31.36-.09.14-.2.27-.27.42-.09.13-.18.27-.25.42-.07.16-.14.31-.2.47-.05.14-.11.31-.16.47-.04.14-.07.29-.09.43,0,.02-.02.04-.02.05-.04.16-.04.38-.05.49-.02.13-.04.23-.04.36,0,.07,0,.16.02.24.02.13.04.24.07.34.04.11.07.22.13.33v.02c.05.11.13.22.2.33.07.11.14.22.24.33.09.09.2.2.31.29.11.11.22.2.34.29.43.38.54.51,1.1.8.09.05.18.09.29.14.02,0,.04.02.05.02,0,.04,0,.05.02.09.02.14.05.29.09.43.04.16.09.31.14.43.05.11.09.22.14.33.02.04.04.07.05.09.07.14.14.27.22.4.09.13.18.25.27.38.09.11.2.24.31.34.11.11.22.2.34.31,0,0,.02.02.04.02.11.09.22.18.33.25.13.09.25.16.4.24.13.07.27.14.42.2.11.05.24.09.36.13.02.02.04.02.07.04.07.02.16.04.24.05-.05.98-.07,1.9.07,2.22.16.36.96-.74,1.75-2.01-.11,1.25-.18,2.71,0,3.15.2.45,1.28-.96,2.22-2.51,12.82-2.96,24.51,5.89,25.74,18.4-.24-1.95-2.64-3.04-3.74-2.77-.54,1.34-1.46,3.06-2.95,4.12.13-1.19.07-2.42-.18-3.62-.4,1.66-1.18,3.22-2.24,4.56h0c-1.72.13-3.43-.71-4.34-1.95-.07-.05-.09-.16-.14-.24-.05-.13-.11-.25-.14-.38-.05-.13-.09-.25-.11-.38-.02-.13-.02-.25-.02-.4v-.27c.02-.13.05-.25.09-.38.04-.13.07-.25.13-.38.07-.13.13-.25.22-.38.31-.87.31-1.57-.25-1.99-.11-.07-.22-.13-.34-.18-.07-.02-.16-.05-.24-.07-.05-.02-.09-.04-.14-.05-.13-.04-.25-.07-.38-.09-.13-.04-.25-.05-.38-.05-.13-.02-.27-.04-.4-.04-.09,0-.18.02-.27.02-.14,0-.27.02-.4.05-.13.02-.25.04-.38.07-.13.04-.25.07-.38.13-.13.05-.24.11-.36.16-.11.05-.22.13-.34.18-4.21,2.75-1.7,9.18,1.18,11.05-1.08.2-2.19.43-2.49.67-.02.02-.04.04-.04.04.78.47,1.59.87,2.44,1.21,1.16.38,2.39.72,2.93.87v.02c1.5.31,3.02.42,4.56.33,8.01-.56,14.57-6.65,15.76-14.68.04.16.07.31.11.47h0c.05.33.13.67.16,1.01v.02c.04.16.05.33.07.47v.07c.02.16.04.33.04.47.02.2.04.4.04.6v.29c0,.09.02.2.02.29,0,.11-.02.22-.02.33v.25c0,.13-.02.24-.02.36,0,.07,0,.14-.02.24,0,.13-.02.25-.02.4-.02.05-.02.11-.02.16-.02.14-.04.27-.05.42,0,.05,0,.11-.02.16-.02.18-.05.34-.07.52v.04c-.04.16-.07.34-.11.51v.05c-.04.16-.07.33-.11.49,0,.02-.02.05-.02.07-.04.16-.07.33-.13.49v.05c-.05.18-.11.34-.14.51-.02.02-.02.04-.02.04-.05.18-.11.36-.16.54-.07.18-.13.34-.2.52-.07.18-.13.36-.2.52-.07.18-.14.34-.22.52h-.02c-.07.16-.14.34-.24.51h0c-.02.05-.04.09-.05.13-.02.02-.02.04-.04.05-1.18,2.37-2.91,4.45-5.08,6.07h0c-.14.09-.29.2-.43.31h0s-.09.05-.13.09c-.13.09-.25.18-.4.27l.05.11h.02c.25-.04.51-.07.76-.11h.02c.47-.07.94-.16,1.41-.25.13-.02.27-.05.4-.09.09-.02.16-.04.25-.05.13-.02.25-.05.38-.07.11-.04.22-.05.33-.09,1.81-.43,3.56-1.03,5.24-1.74-2.87,3.92-6.72,7.09-11.23,9.17,2.08-.14,4.16-.49,6.16-1.07,7.29-2.15,13.41-7.05,17.08-13.65-.74,4.18-2.4,8.15-4.86,11.62,1.75-1.16,3.36-2.49,4.83-4.01,4.05-4.23,6.71-9.6,7.61-15.37.61,2.86.8,5.8.52,8.71,13.05-18.2,1.08-37.08-3.92-42.05-.02-.04-.04-.05-.04-.09t-.02.04s0-.02-.02-.04c0,.22-.02.43-.04.65-.05.42-.11.81-.18,1.21-.09.4-.2.8-.31,1.19-.13.38-.27.78-.43,1.16-.16.36-.34.74-.54,1.1-.2.34-.42.71-.65,1.03-.24.34-.49.67-.74.98-.27.33-.56.61-.85.9-.18.16-.34.31-.52.45-.14.13-.27.24-.42.36-.33.25-.65.49-1.01.71-.34.22-.71.43-1.07.61-.38.18-.76.34-1.14.51-.38.14-.78.27-1.18.38-.4.11-.81.2-1.21.27-.42.07-.83.11-1.23.14-.29.02-.58.04-.87.04-.42,0-.83-.04-1.23-.07-.42-.04-.83-.09-1.23-.18-.42-.07-.81-.18-1.21-.31h-.02c.4-.04.8-.07,1.19-.14.42-.07.81-.16,1.21-.27.4-.11.8-.24,1.18-.38.4-.14.78-.33,1.14-.51.38-.18.72-.38,1.08-.6.34-.24.69-.47,1.01-.72.33-.25.63-.52.92-.81.31-.27.58-.58.85-.89.27-.33.52-.65.76-.98.04-.05.07-.13.11-.18.18-.29.36-.58.52-.87.2-.36.38-.72.54-1.1.16-.38.31-.76.43-1.16.13-.38.22-.78.31-1.18.07-.42.14-.81.18-1.21.04-.42.07-.83.07-1.23,0-.29-.02-.58-.04-.87-.04-.42-.09-.81-.14-1.21-.07-.42-.16-.81-.27-1.21-.13-.38-.25-.78-.4-1.16-.14-.38-.33-.76-.51-1.12-.2-.36-.4-.72-.61-1.07-.24-.34-.47-.67-.72-.99-.27-.31-.54-.61-.83-.92-.14-.14-.31-.31-.47-.45-.81-.63-1.66-1.23-2.51-1.77-.13-.07-.24-.13-.36-.18-.6-.38-1.16-.58-1.72-.76h0Z"/></g></svg>