<?xml version="1.0" encoding="UTF-8"?><svg id="Layer_1" xmlns="http://www.w3.org/2000/svg" xmlns:xlink="http://www.w3.org/1999/xlink" viewBox="0 0 72 72"><defs><style>.cls-1{fill:#fe9801;}.cls-2{fill:url(#linear-gradient);}</style><linearGradient id="linear-gradient" x1="10.76" y1="10.71" x2="71.47" y2="71.43" gradientUnits="userSpaceOnUse"><stop offset="0" stop-color="#0056aa"/><stop offset="1" stop-color="#283654"/></linearGradient></defs><path class="cls-2" d="m1.29,32.17C2.79,18.29,12.43,6.59,25.84,2.57c2.45-.74,4.16-1.57,10.16-1.57s12.09,2,15.19,3.48c12.96,6.2,21.02,19.8,19.61,34.92-1.64,17.57-16.38,31.26-34.01,31.59-15.75.3-29.71-9.84-34.22-24.95-1.57-5.05-1.57-8.05-1.28-13.87Zm51.79,28.86c13.65-8.66,17.43-28.21,8.21-41.85C51.6,4.83,32.39,1.33,18.32,11.36,4.49,21.22,1.53,40.72,11.87,54.33c10.46,13.78,28.07,14.18,37.08,8.87-8.1-11.21-16.2-22.42-24.3-33.63-.11.05-.22.1-.33.15v27.16h-4.49c-.05-.21-.1-.31-.1-.41,0-11.41-.01-22.81-.01-34.22,0-.26.02-.52.08-.77.37-1.45,1.83-2.23,3.13-1.56.56.29,1.05.83,1.43,1.35,5.08,7,10.15,14.01,15.21,21.02,4.49,6.21,8.97,12.42,13.52,18.72Z"/><path class="cls-1" d="m52.28,19.78v27.78h-4.46v-27.78h4.46Z"/></svg>