<?xml version="1.0" encoding="UTF-8"?><svg id="Layer_1" xmlns="http://www.w3.org/2000/svg" xmlns:xlink="http://www.w3.org/1999/xlink" viewBox="0 0 72 72"><defs><style>.cls-1{fill:#fe9801;}.cls-2{fill:url(#linear-gradient);}</style><linearGradient id="linear-gradient" x1="2.22" y1="36" x2="69.78" y2="36" gradientUnits="userSpaceOnUse"><stop offset="0" stop-color="#0056aa"/><stop offset="1" stop-color="#283654"/></linearGradient></defs><path class="cls-2" d="m2.22,56.76c.06-.1.08-.21.1-.33.08-.54.27-1.04.54-1.51,1.23-2.12,2.45-4.24,3.67-6.35.99-1.72,1.99-3.44,2.99-5.16,1.03-1.78,2.05-3.55,3.07-5.33.87-1.5,1.74-3,2.6-4.5.91-1.58,1.82-3.16,2.73-4.73.77-1.34,1.55-2.68,2.32-4.02.99-1.71,1.98-3.43,2.97-5.14,1.29-2.24,2.58-4.48,3.89-6.72.65-1.12,1.63-1.79,2.91-1.97,1.26-.17,2.39.17,3.33,1.06.34.32.61.7.84,1.11,1.17,2.03,2.34,4.05,3.51,6.08.95,1.65,1.91,3.31,2.86,4.96.07.12.12.25.24.35.12-.08.16-.2.22-.3.6-1.03,1.17-2.07,1.79-3.08.71-1.16,1.77-1.83,3.14-1.92,1.69-.11,2.97.61,3.82,2.05,1.38,2.34,2.73,4.71,4.09,7.06,1.55,2.69,3.1,5.38,4.66,8.07,1.26,2.18,2.52,4.36,3.78,6.54,1.29,2.23,2.58,4.47,3.87,6.7.99,1.72,1.99,3.44,2.99,5.16.4.69.66,1.42.63,2.23-.04,1.47-.69,2.6-1.92,3.39-.65.42-1.38.59-2.16.59-6.29,0-12.59,0-18.88,0-6.56,0-13.11,0-19.67,0-6.94,0-13.87,0-20.81,0-.93,0-1.77-.27-2.5-.84-.83-.65-1.34-1.5-1.52-2.55-.02-.13-.03-.26-.1-.38v-.53Zm12.3.26c2.6,0,5.21,0,7.81,0,.4,0,.36-.03.39-.33.05-.57.2-1.11.49-1.6,1.62-2.8,3.24-5.61,4.86-8.41,1.71-2.96,3.42-5.93,5.13-8.89,1.36-2.36,2.73-4.72,4.09-7.09.35-.6.69-1.21,1.05-1.8.09-.16.1-.29,0-.44-.02-.03-.03-.06-.05-.09-.84-1.45-1.67-2.89-2.51-4.34-1.44-2.5-2.89-5-4.33-7.5-.25-.43-.49-.85-.74-1.28-.12-.21-.14-.21-.27,0-.01.02-.03.04-.04.07-.55.95-1.1,1.9-1.65,2.86-1.03,1.78-2.06,3.57-3.09,5.35-.87,1.51-1.74,3.02-2.62,4.52-1.03,1.78-2.06,3.57-3.09,5.35-.8,1.39-1.6,2.77-2.4,4.16-.91,1.57-1.81,3.14-2.72,4.71-.87,1.51-1.74,3.02-2.62,4.52-1.03,1.79-2.07,3.58-3.1,5.37-.87,1.5-1.74,3-2.6,4.5-.2.35-.2.35.2.35,2.6,0,5.19,0,7.79,0Zm26.29-24.22c-.09.05-.12.15-.17.23-.6,1.03-1.2,2.07-1.8,3.11-1.29,2.23-2.58,4.47-3.87,6.7-1.33,2.3-2.66,4.6-3.99,6.9-1.34,2.32-2.68,4.65-4.02,6.97-.05.08-.15.16-.1.26.05.1.18.04.27.04,9.12,0,18.23,0,27.35,0,.06,0,.12,0,.18,0,.1,0,.12-.06.08-.14-.02-.05-.05-.09-.08-.14-.74-1.28-1.48-2.56-2.22-3.84-2.01-3.48-4.02-6.97-6.03-10.45-1.83-3.16-3.65-6.32-5.48-9.48-.03-.06-.05-.14-.13-.16Zm5.44-9.41c-.07.02-.09.1-.13.15-.94,1.62-1.87,3.25-2.81,4.87-.11.19-.12.33,0,.53,1.4,2.41,2.8,4.83,4.19,7.24,1.94,3.36,3.88,6.72,5.82,10.08,1.66,2.88,3.33,5.76,4.99,8.64.34.59.56,1.21.6,1.9.01.19.03.21.22.22.07,0,.14,0,.21,0,1.99,0,3.98,0,5.97,0,.11,0,.27.05.32-.04.07-.11-.07-.22-.12-.32-.87-1.52-1.75-3.03-2.63-4.55-1.29-2.23-2.58-4.47-3.87-6.7-1.06-1.84-2.13-3.69-3.2-5.53-1.3-2.26-2.6-4.51-3.91-6.77-.95-1.65-1.91-3.31-2.86-4.96-.88-1.52-1.75-3.03-2.63-4.55-.04-.07-.07-.17-.16-.21Z"/><path class="cls-1" d="m58.9,56.79c-.04-.68-.26-1.31-.6-1.9-1.66-2.88-3.33-5.76-4.99-8.64-1.94-3.36-3.88-6.72-5.82-10.08-1.39-2.42-2.79-4.83-4.19-7.24-.11-.19-2.49-4.38-2.49-4.38,0,0-2.36,4.17-2.46,4.33-.36.6-.7,1.2-1.05,1.8-1.36,2.36-2.73,4.72-4.09,7.09-1.71,2.96-3.42,5.93-5.13,8.89-1.62,2.8-3.24,5.61-4.86,8.41-.29.5-.44,1.04-.49,1.6-.32,2.77,1.9,4.37,4.43,4.37,6.56,0,13.11,0,19.67,0,2.82,0,5.64,0,8.46,0,3.77,0,3.61-3.4,3.61-4.26Zm-4.24.22c-.06,0-.12,0-.18,0-9.12,0-18.23,0-27.35,0-.09,0-.22.05-.27-.04-.05-.09.06-.17.1-.26,1.34-2.32,2.68-4.65,4.02-6.97,1.33-2.3,2.66-4.6,3.99-6.9,1.29-2.23,2.58-4.47,3.87-6.7.6-1.04,1.2-2.07,1.8-3.11.05-.08.08-.18.17-.23.08.02.1.1.13.16,1.83,3.16,3.65,6.32,5.48,9.48,2.01,3.48,4.02,6.96,6.03,10.45.74,1.28,1.48,2.56,2.22,3.84.03.05.05.09.08.14.04.08.03.14-.08.14Z"/></svg>