<?xml version="1.0" encoding="utf-8"?>
<!-- Generator: Adobe Illustrator 24.1.1, SVG Export Plug-In . SVG Version: 6.00 Build 0)  -->
<svg version="1.1" id="Layer_1" xmlns="http://www.w3.org/2000/svg" xmlns:xlink="http://www.w3.org/1999/xlink" x="0px" y="0px"
	 width="673px" height="390px" viewBox="0 0 673 390" style="enable-background:new 0 0 673 390;" xml:space="preserve">
<g>
	<path style="fill:#337DC1;" d="M574.1,309.6h13.7V280h-13.7V309.6z M597.1,309.6h13.7V280h-13.7V309.6z M551.2,309.6h14V280h-14
		L551.2,309.6z M505.5,309.6h13.7V280h-13.7V309.6z M482.5,309.6h14V280h-14V309.6z M654.2,204.2h-11.9v35.7l-14.5-14.5l-4.5-4.5
		l-5,5l-5.8,6.1l-6.1-6.1l-4.8-5l-5,5l-6.1,6.1l-5.8-6.1l-5-4.8l-4.8,4.8l-6.1,6.1l-6.1-6.1l-4.8-4.8l-5,4.8l-5.8,6.1l-6.1-6.1
		l-5-4.8l-4.8,5l-6.1,5.8l-6.1-5.8l-4.8-5l-5,5l-5.8,5.8l-6.1-5.8l-4.8-5l-4.2,4.2L474,239.9v-35.7h-11.9c-3.8,0-6.9,3.1-6.9,6.9
		l0,0v53.6c0,3.8,3.1,6.9,6.9,6.9h192.1c3.8,0,6.9-3.1,6.9-6.9v-53.6c0.1-3.6-2.7-6.7-6.3-6.9C654.5,204.2,654.4,204.2,654.2,204.2z
		 M528.4,309.6h13.7V280h-13.7V309.6z M619.8,309.6h14V280h-14V309.6z M583.1,139c-1.3-0.1-2.6,0.5-3.4,1.6
		c-0.8,1.4-1.2,3.1-1.1,4.8c-0.1,1.5,0.2,3,1.1,4.2c0.8,1,2.1,1.6,3.4,1.6c1.3,0,2.6-0.7,3.2-1.8c0.9-1.2,1.4-2.7,1.3-4.2
		c0-1.6-0.4-3.2-1.3-4.5C585.6,139.5,584.4,138.9,583.1,139z M623,152.4h-6.9c-3.8,32-32.8,54.9-64.8,51.1s-54.9-32.8-51.1-64.8
		S533,83.8,565,87.6c26.8,3.2,47.9,24.3,51.1,51.1h6.9c0.1-3.7,3.2-6.6,6.9-6.6h4V79.3H482.7v140l10.3-10l10.8,10.8l10.8-10.8
		l10.8,10.8l10.8-10.8l11.1,10.8l10.8-10.8l10.6,10.8l10.8-11.1l10.8,10.8l11.1-10.8l10.8,10.8l10.8-10.8l10.6,10.6v-60.2h-4
		C626.1,159.2,623.2,156.2,623,152.4z M558.3,97.2c-26.7-0.1-48.5,21.4-48.6,48.1s21.4,48.5,48.1,48.6c26.7,0.1,48.5-21.4,48.6-48.1
		c0-0.2,0-0.4,0-0.5C606.4,118.8,584.8,97.2,558.3,97.2z M543.5,151.1c-2.1,2.5-5.2,3.8-8.5,3.7h-11.6v-26.9h11.9
		c3.2-0.2,6.2,1.2,8.2,3.7c2,2.6,3,5.9,2.9,9.2C546.5,144.5,545.5,148.1,543.5,151.1z M568.3,154.8h-5v-2.6l0,0
		c-1.3,2.1-3.6,3.3-6.1,3.2c-1.9,0.1-3.7-0.6-5-1.8c-1.3-1.5-2-3.5-1.8-5.5V135h5.3v12.4c-0.1,1,0.2,1.9,0.8,2.6
		c0.7,0.7,1.6,1.1,2.6,1.1c1.1,0,2.2-0.5,2.9-1.3c0.8-0.9,1.2-2.2,1.1-3.4V135h5.3V154.8z M590.8,152.4c-1.5,2-3.9,3.1-6.3,2.9
		c-2.3,0.3-4.5-0.9-5.5-2.9l0,0v10.3h-5.3V135h5v2.9l0,0c1.2-2.2,3.6-3.5,6.1-3.4c2.2-0.1,4.4,0.9,5.8,2.6c1.7,2.2,2.5,4.9,2.4,7.7
		C593,147.5,592.2,150.2,590.8,152.4z M534.5,132.6H529v17.7h5.5c1.8,0,3.5-0.9,4.5-2.4c1.1-2.1,1.7-4.5,1.6-6.9
		c0.2-2.2-0.4-4.5-1.6-6.3C538,133.3,536.3,132.5,534.5,132.6z M654.5,131.6h-20.6v27.7h20.6c3.7-0.1,6.6-3.2,6.6-6.9v-14.3
		C661.1,134.5,658.1,131.6,654.5,131.6z"/>
	<g>
		<g>
			<rect x="68.2" y="52.2" style="fill:#FFFFFF;" width="128.7" height="128.7"/>
			<g>
				<path style="fill:#337DC1;" d="M51.3,35.2c0,51.4,0,102.7,0,154.1c51.4,0,102.7,0,154.1,0c0-51.4,0-102.7,0-154.1
					C154,35.2,102.7,35.2,51.3,35.2z M106.5,70.9c7.4-14.7,27-16.7,37.3-3.9c4.9,6.1,7.4,12.9,7.3,23.8c-0.3,7.2-4.5,15.3-14.1,19.8
					c-8.3,3.9-16.1,2.5-23.1-3.2C103,98.5,100.1,83.8,106.5,70.9z M79.5,165.3c0.3-4,0.5-7.8,0.9-11.6c0.9-7.3,1.8-14.7,3.3-21.9
					c1.8-9.7,7.4-16.3,17.4-18.9c4-1,7.3-0.4,10.5,2.3c4.9,4.1,10.5,6.8,17.1,6.7c4.9-0.1,9.6-1.4,13.5-4.5c4.1-3.1,8-6,13.7-4.1
					c7,2.3,13,5.8,15.4,12.9c1.8,5.3,2.7,11.1,3.5,16.7c1,7.3,1.6,14.7,2.5,22.4C144.3,165.3,112.1,165.3,79.5,165.3z"/>
			</g>
		</g>
		<g>
			<rect x="66.9" y="217.8" style="fill:#FFFFFF;" width="128.7" height="128.7"/>
			<g>
				<path style="fill:#337DC1;" d="M50,200.8c0,51.4,0,102.7,0,154.1c51.4,0,102.7,0,154.1,0c0-51.4,0-102.7,0-154.1
					C152.8,200.8,101.4,200.8,50,200.8z M105.2,236.5c7.4-14.7,27-16.7,37.3-3.9c4.9,6.1,7.4,12.9,7.3,23.8
					c-0.3,7.2-4.5,15.3-14.1,19.8c-8.3,3.9-16.1,2.5-23.1-3.2C101.7,264.1,98.8,249.4,105.2,236.5z M78.3,330.9
					c0.3-4,0.5-7.8,0.9-11.6c0.9-7.3,1.8-14.7,3.3-21.9c1.8-9.7,7.4-16.3,17.4-18.9c4-1,7.3-0.4,10.5,2.3c4.9,4.1,10.5,6.8,17.1,6.7
					c4.9-0.1,9.6-1.4,13.5-4.5c4.1-3.1,8-6,13.7-4.1c7,2.3,13,5.8,15.4,12.9c1.8,5.3,2.7,11.1,3.5,16.7c1,7.3,1.6,14.7,2.5,22.4
					C143,330.9,110.8,330.9,78.3,330.9z"/>
			</g>
		</g>
	</g>
	<g>
		<polygon style="fill:#F28E0A;" points="234.1,212 283.8,212 283.8,242.6 331.4,195 283.8,147.4 283.8,178 234.1,178 		"/>
		<polygon style="fill:#F28E0A;" points="437.9,178 389.2,178 389.2,147.4 341.6,195 389.2,242.6 389.2,212 437.9,212 		"/>
	</g>
</g>
</svg>
